<?xml version="1.0" encoding="UTF-8"?>
<svg id="md-favicon" width="120mm" height="120mm" version="1.1" viewBox="0 0 340.2 340.2"
     xmlns="http://www.w3.org/2000/svg">
    <g id="color" transform="translate(-8.1406 -100.4)" fill="#d3222b" stroke="#d3222b" stroke-width="4">
        <path id="mind-1"
              d="m38 228c7.72-9.13 10.57-15.38 22-21.37 21.76-11.4 54.67-5.57 61 21.37h2c11.25-28.93 61.85-38.48 77.68-9 7.56 14.09 6.32 30.56 6.32 46v77h-14c0-22.04 1.14-77.57-1.29-96-2.3-17.51-10.85-28.7-29.71-27.96-18.18 0.71-32.73 13.79-37.57 30.96-2.97 10.54-2.43 25.9-2.43 37v56h-13v-86c-0.03-19.91-6.43-38.88-30-37.96-23.73 0.93-39.89 21.02-40 43.96v80h-14v-138h13z"/>
        <path id="designer-1"
              d="m216.46 198h31c20.09 0 40.22-0.57 58 10.47 24.29 15.07 26.29 44.03 26 69.53-0.1 7.87-2.51 20.7-5.45 28-3.88 9.61-9.25 17.45-17.55 23.76-14.13 10.74-28.27 11.18-45 12.33l-23 0.91h-16c-2.15-0.03-5.52 0.11-7.01-1.74-1.24-1.54-0.99-5.32-0.99-7.26v-6h37c13.82 0 27.7-0.16 40-7.45 20.67-12.26 23.25-33.67 23-55.55-0.2-17.08-6.22-35.08-21-44.9-10.02-6.66-20.48-7.4-32-8.19l-11-0.91h-36z"/>
    </g>
</svg>
