<?xml version="1.0" encoding="UTF-8"?>
<svg id="svg1" width="551.32mm" height="141.8mm" version="1.1" viewBox="0 0 1563 402"
     xmlns="http://www.w3.org/2000/svg">
    <g id="color-1" fill="none" stroke="#d3222b" stroke-width="4">
        <path id="line-short"
              d="m27 159c35.76-20.35 91.95-40.31 132-51.15 56.01-15.17 114.01-24.18 172-24.85l15-0.96h11l10 0.96h15l11 0.96c36.8 1.61 75.01 7.67 111 15.62 35.84 7.91 70.73 18.96 105 32l27 11c5.06 2.16 10.68 4 15 7.42l-49-13.58c-23.29-6.47-47.25-11.36-71-15.81-37.23-6.98-76.21-12-114-13.65l-11-0.96s-22-1-22-1h-57l-17 1-43 2.83c-51.89 5.03-98.15 11.99-149 24.05l-63 17.79c-5.61 1.86-23.48 9.15-28 8.33z"/>
        <path id="point"
              d="m925 79.44c5.35-0.67 8.82-0.15 14 1.31 4.92 1.38 8.14 3.02 12 6.43 25.06 22.18 6.56 60.45-23 58.73-30.1-1.75-41.77-36.8-22.7-56.74 5.64-5.9 11.9-8.27 19.7-9.73z"/>
        <path id="mind-1"
              d="m38 228c7.72-9.13 10.57-15.38 22-21.37 21.76-11.4 54.67-5.57 61 21.37h2c11.25-28.93 61.85-38.48 77.68-9 7.56 14.09 6.32 30.56 6.32 46v77h-14c0-22.04 1.14-77.57-1.29-96-2.3-17.51-10.85-28.7-29.71-27.96-18.18 0.71-32.73 13.79-37.57 30.96-2.97 10.54-2.43 25.9-2.43 37v56h-13v-86c-0.03-19.91-6.43-38.88-30-37.96-23.73 0.93-39.89 21.02-40 43.96v80h-14v-138h13v24z"/>
        <path id="designer-1"
              d="m539 198h31c20.09 0 40.22-0.57 58 10.47 24.29 15.07 26.29 44.03 26 69.53-0.1 7.87-2.51 20.7-5.45 28-3.88 9.61-9.25 17.45-17.55 23.76-14.13 10.74-28.27 11.18-45 12.33l-23 0.91h-16c-2.15-0.03-5.52 0.11-7.01-1.74-1.24-1.54-0.99-5.32-0.99-7.26v-6h37c13.82 0 27.7-0.16 40-7.45 20.67-12.26 23.25-33.67 23-55.55-0.2-17.08-6.22-35.08-21-44.9-10.02-6.66-20.48-7.4-32-8.19l-11-0.91h-36v-13z"/>
    </g>
    <g id="color-2" fill="none" stroke="#6a6e71" stroke-width="4">
        <path id="line-long"
              d="m29 141c38.33-27.13 88.42-50.14 133-65 112.22-37.41 232.16-42.07 346-8.28 35.12 10.43 70.15 23.22 103 39.53l41 21.61 23 12.69c41.38 16.91 90.91 29.47 135 36.86 22.31 3.75 44.48 6.14 67 7.68l10 0.95h13l12 0.96h22l10-0.96h13l10-0.95 24-1.92c34.85-3.49 70.15-9.16 104-18.32l54-16.85c5.31-1.85 17.09-7.87 22-7-63.6 38.17-152.63 65.13-227 66l-15 1-34-1-10-0.91c-37-2.59-73.51-10.12-109-20.81-22.52-6.78-45.63-15.78-67-25.59l-38-18.83c-32.37-14.41-66.06-26.07-100-36.14-63.86-18.96-133.47-29.95-200-30.72l-15-1-42 1-10 1h-9s-38 3.84-38 3.84c-46.04 4.92-95.66 15.52-140 28.88-20.5 6.17-41.26 13.42-61 21.7 0 0-17 7.36-17 7.36-3.34 1.58-6.22 3.73-10 3.22z"/>
        <path id="mind-2" d="m236 236h15v106h-15v-106z"/>
        <path id="mind-3"
              d="m294 254c5.27-5.27 9.39-10.05 16-13.69 20.22-11.13 56.78-11.48 66.53 13.69 3.38 8.72 3.47 25.43 3.47 35v53h-15v-63c-0.01-8.58-1.11-18.32-7.21-24.91-9.66-10.42-31.01-8.85-42.79-3.11-5.21 2.54-10.03 6.46-13.61 11.02-7.6 9.67-6.39 18.62-6.39 30v50h-15v-106h14v18z"/>
        <path id="mind-4"
              d="m500 197h14v145h-14v-18c-11.55 13.29-22 19.97-40 20h-7c-18.43-0.22-36.3-10.74-45.1-27-3.84-7.09-5.36-15.07-5.98-23-2.47-31.4 16.19-60.6 50.08-60.77 4.19-0.28 13.26-0.44 17 0 13.43 2.65 21.62 9.41 31 18.77v-55zm-49 49.29c-13.03 2.16-23.37 7.63-29.88 19.71-13.81 25.67-0.31 63.62 31.88 64 12.18 0.14 20.54 0.71 31-6.93 21.37-15.6 21-52.23 1-68.74-9.43-7.79-22.23-9.16-34-8.04z"/>
        <path id="designer-2"
              d="m781 308c-0.6 6.66-3.36 12.62-7.29 18-12.97 17.73-30.44 20.23-50.71 20-6.78-0.08-13.76-1.83-20-4.46-22.24-9.39-31.26-31.87-31-54.54 0.21-17.9 8.25-34.83 23-45.22 17.36-12.22 46.8-12.37 65-1.9 4.58 2.63 8.35 6.3 11.96 10.12 7.28 7.7 12.2 19.41 12.95 30 0.17 2.41 1.16 10.53-0.55 11.98-1.47 1.25-5.46 1.02-7.36 1.02h-89c0.15 16.23 9.37 31.29 25 36.91 6.84 2.46 11.92 2.17 19 2.09 5-0.06 9.41-0.83 14-2.9 5.45-2.46 10.52-6.29 14.07-11.1 1.73-2.34 4.28-7.68 6.32-8.98 2.46-1.57 11.35-1.02 14.61-1.02zm-12-27c-1.02-46.26-78.79-47.39-81 0h81z"/>
        <path id="designer-3"
              d="m813 309c4.82 23.58 30.33 25.54 50 22.7 9.59-1.38 24.19-7.85 22.63-19.7-1.54-11.74-15.16-13.81-24.63-15.13-14.69-2.05-43.5-4.21-53.67-15.05-3.71-3.96-5.08-8.6-5.7-13.82-0.78-3.79-0.62-6.26 0-10 4.6-20.41 27.67-24.91 45.37-25.91 3.83-0.21 5.47 0.39 9 0.74 13.45 1.35 28.06 4.89 35.87 17.17 3.34 5.26 4.04 11.02 5.13 17h-15c-3.68-19.62-22.88-21.08-39-21-10.16 0.05-29.01 5.52-26.57 19 1.94 10.74 15.8 12.63 24.57 14.08 13.95 2.31 42.93 4.46 52.82 14.13 4.28 4.18 5.84 9.04 6.56 14.79 0.8 3.93 0.59 6.13 0 10-5.68 27.48-35.16 28.03-57.38 28-6-0.01-8.11-0.25-14-1.65-5.92-1.41-12.18-4.14-17-7.88-11.21-8.67-10.93-15.3-14-27.47h15z"/>
        <path id="designer-4" d="m922 236h14v100l-1.6 5.98-7.4 1.02h-5v-107z"/>
        <path id="designer-5"
              d="m1057 326c-15.52 15.52-23.19 19.1-45 19-7.89-0.04-15.79-1.82-23-5.04-47.81-21.3-36.72-105.28 21-105.96 13.89-0.16 24.08 0.25 36 8.79 3.7 2.64 7.72 6.93 11 10.21 0-3-0.56-13.4 1.02-15.4 1.8-2.28 11.16-2.28 12.96 0 1.25 1.59 1.02 5.41 1.02 7.4v89c-0.02 10.37-1.05 21.94-8.18 30-11.3 12.76-29.51 16.33-45.82 16.96-4.9 0.19-6.52-0.47-11-0.89-20.85-1.93-35.56-9.07-40-31.07 2.97 0 12.21-0.56 14.3 0.99 1.59 1.17 2.74 4.78 4.35 6.99 2.88 4 6.8 6.29 11.35 7.93 15.98 5.76 47.25 4.45 56.64-11.91 4.53-7.91 3.36-18.14 3.36-27zm-46-78.71c-10.28 1.57-18 3.31-25.7 11.01-14.31 14.31-15.57 44.52-2.12 59.7 8.85 9.99 18.01 12.67 30.82 13.49 11.58 0.74 24.67-3.05 32.82-11.58 9.98-10.45 10.33-21.48 10.18-34.91-0.14-11.28-4.98-22.43-14-29.47-8.6-6.71-21.3-9.24-32-8.24z"/>
        <path id="designer-6"
              d="m1115 254c13.04-13.04 22.9-19.77 42-20 6.22-0.07 10.87 0.04 17 1.5 31.18 7.41 26 39.85 26 64.5v34c0 2.3 0.38 6.41-1.6 7.98-1.89 1.5-9.74 1.02-12.4 1.02v-58c-0.1-8.55-1.44-22.02-6.64-28.96-5.67-7.58-15.47-9.23-24.36-9.03-14.41 0.33-28.93 6.99-36.1 19.99-4.93 8.94-3.9 18.21-3.9 28v48h-14v-107c2.66 0 10.51-0.48 12.4 1.02 2.5 1.98 1.6 13.59 1.6 16.98z"/>
        <path id="designer-7"
              d="m1331 308c-3.43 22.22-25.19 37.74-47 38h-11c-7.26-0.09-15.43-2.25-22-5.32-18.28-8.56-28.77-27.93-29-47.68-0.2-17.55 2.83-33.1 16.09-45.83 23.1-22.17 68.23-19.55 87.12 6.83 9.12 12.74 9.79 24.1 9.79 39h-98c2.25 7.68 1.86 13.34 6.48 21 9.13 15.13 22.27 18.19 38.52 18 6.52-0.08 12.41-1.68 18-5.12 4.53-2.78 7.49-5.56 10.56-9.88 1.5-2.12 3.88-6.74 5.83-7.98 2.47-1.57 11.34-1.02 14.61-1.02zm-12-27c-2.24-47.97-79.97-45.73-81 0h81z"/>
        <path id="designer-8"
              d="m1373 252c4.07-12.03 19.54-20.67 32-19.68 4.43 0.36 8.7 1.71 13 2.68v14l-12-1.82c-17.91-1.3-33.91 15.46-34 32.82v51c0 2.41 0.4 8.6-1.02 10.4-1.51 1.91-5.74 1.67-7.98 1.58-6.71-0.28-5.99-3.27-6-8.98v-91c0.04-1.95-0.1-4.63 1.6-5.98 1.59-1.25 5.41-1.02 7.4-1.02h6l1 16z"/>
        <path id="registered-1"
              d="m1482 175.43c46.08-5.69 80.27 41.3 62.13 83.57-2.81 6.55-7.13 12.93-12.17 17.96-5.42 5.42-12.84 10.35-19.96 13.22-7.69 3.1-16.7 4.99-25 4.81-43.85-1-70.99-48.27-51.63-86.99 9.79-19.57 25.67-29.14 46.63-32.57zm4 6.86-11 1.63c-16.26 4.27-30.24 17.29-35.91 33.08-10.39 28.95 5.94 60.98 35.91 68.84 4.48 1.18 12.45 2.4 17 1.87 18.99-2.18 35.74-10.95 44.63-28.71 15.87-31.75-3.66-70.91-39.63-76-4.74-0.67-6.09-1.13-11-0.71z"/>
        <path id="registered-2"
              d="m1476 269c-9.64 0-10.94 0.6-11-8v-53c0.02-8.64 0.36-8.98 9-9 10.81-0.02 30.19-1 38.96 5.64 7.21 5.46 8.19 18.34 2.62 25.32-3.39 4.25-7.48 5.84-12.58 7.04 3.82 6.72 13.72 25.19 15 32-2.7 0-9.27 0.47-11.37-0.99-1.72-1.2-3.42-5.08-4.38-7.01-2.05-4.09-8.44-19.24-10.88-21.4-2.75-2.43-11.61-1.6-15.37-1.6v31zm0-38c6.63 0 21.63 0.95 26.93-2.14 6.93-4 6.73-15.49 0-19.42-5.92-3.42-19.83-2.44-26.93-2.44v24z"/>
    </g>
</svg>
